<?xml version="1.0" encoding="UTF-8" standalone="no"?>
<!-- Created with Inkscape (http://www.inkscape.org/) -->

<svg
   width="356.99625mm"
   height="147.02057mm"
   viewBox="0 0 356.99625 147.02057"
   version="1.1"
   id="svg1"
   xml:space="preserve"
   sodipodi:docname="boo.svg"
   inkscape:version="1.4 (e7c3feb100, 2024-10-09)"
   xmlns:inkscape="http://www.inkscape.org/namespaces/inkscape"
   xmlns:sodipodi="http://sodipodi.sourceforge.net/DTD/sodipodi-0.dtd"
   xmlns="http://www.w3.org/2000/svg"
   xmlns:svg="http://www.w3.org/2000/svg"><sodipodi:namedview
     id="namedview1"
     pagecolor="#ffffff"
     bordercolor="#000000"
     borderopacity="0.25"
     inkscape:showpageshadow="2"
     inkscape:pageopacity="0.0"
     inkscape:pagecheckerboard="0"
     inkscape:deskcolor="#d1d1d1"
     inkscape:document-units="mm"
     inkscape:zoom="0.53094837"
     inkscape:cx="855.07372"
     inkscape:cy="448.25451"
     inkscape:window-width="1463"
     inkscape:window-height="842"
     inkscape:window-x="0"
     inkscape:window-y="0"
     inkscape:window-maximized="1"
     inkscape:current-layer="layer1" /><defs
     id="defs1" /><g
     inkscape:label="Layer 1"
     inkscape:groupmode="layer"
     id="layer1"
     transform="translate(77.001968,-29.677217)"><g
       transform="matrix(0.26458333,0,0,0.26458333,-94.375451,6.6391762)"
       id="g9">
	<path
   class="st0"
   d="m 555.3,541.1 c 0,0 9.6,47.7 46.1,50.9 36.5,3.2 -38.6,63.8 -105.1,-3.2 0,0 -34.8,83.1 -89,11.3 0,0 -47.7,77.7 -92.7,1.1 0,0 -46.6,68.6 -88.4,3.8 0,0 -56.3,62.2 -104,-5.9 0,0 55.7,-8 60,-40.7 4.3,-32.7 -1.6,-278.7 -1.6,-278.7 0,0 22.5,-176.9 178.5,-186 156,-9.1 188.7,159.2 188.7,159.2 z"
   id="path1" />
	<path
   class="st1"
   d="m 342.5,88.8 c 41.7,-6 85.1,3.8 121.1,26.8 31,19.6 56.5,48.7 73.4,82.5 15.3,30.4 23.6,64.6 24.4,99 0.1,1.9 0.4,3.8 0.4,5.6 v 220.6 c 0,2.2 -0.1,4.4 0.2,6.6 0.5,3.9 0,7.8 0.8,11.7 1.1,5.3 2.5,10.7 5.1,15.4 7.2,14.2 21,23.8 35.6,27 3,0.7 6.5,0.6 8.8,3.2 3.6,3.5 3.2,10.5 -0.9,13.4 -2,1.2 -3.2,3.5 -4.8,5.2 -12.7,15.1 -31.5,23.8 -50.4,24.6 -21.4,1.4 -43.3,-7.3 -58,-24 -2.4,4.1 -5,8.1 -8.3,11.7 -3.2,3.8 -7.1,6.7 -10.9,9.5 -3,1.5 -5.8,3.5 -9,4.7 -8.8,3.9 -18.6,4.7 -28,3.7 -13.5,-1.8 -26,-9 -35.1,-19.7 -10.2,16.4 -28.4,26.8 -47,26.4 -5.3,0.3 -10.5,-1.1 -15.5,-2.2 -12.1,-3.7 -22.9,-11.9 -30.2,-22.7 -7.8,10.9 -19.4,18.4 -31.9,21.4 -9.7,2.2 -20,1.9 -29.5,-1.4 -7.6,-2.5 -14.5,-6.8 -20.4,-12.4 -2,-1.7 -3.5,-4.1 -5.5,-5.9 -12.2,11.4 -28.2,18.2 -44.5,19.1 -18.4,1.3 -37.3,-4.6 -51.6,-17.1 -4.3,-3.6 -8,-7.8 -11.4,-12.4 -1.3,-1.8 -1.6,-4.1 -2.9,-6 -2.5,-3.8 -1.3,-9.4 2.3,-11.9 2.4,-1.9 5.6,-1.5 8.4,-1.9 10.6,-1.5 20.8,-6.3 28.9,-13.6 9.6,-8.7 16.2,-21.7 16.3,-35.2 0.5,-12.7 0.1,-25.4 0.2,-38.1 v -199 c 0.2,-2.8 -0.5,-5.7 -0.4,-8.5 1.1,-30.3 7.9,-60.4 20.2,-87.8 13.7,-30.6 34.2,-57.8 59.6,-78.3 26.5,-21.4 57.8,-35.5 90.5,-40 m 14.4,16.2 c -25.6,1.6 -50.8,9.6 -73.2,22.8 -21.4,12.6 -40.3,30.1 -55.2,50.7 -23.3,31.9 -36.9,71.5 -39.1,111.8 0.3,8.3 0.1,16.7 0.2,25 v 148.9 c -0.1,25.6 0.2,51.2 -0.1,76.7 -0.4,11.7 -3.8,23.2 -9.9,33 -9.3,15.5 -24.7,26.3 -41.3,30.9 5.3,5.1 11.4,9.2 18.1,11.9 8.7,3.7 18.3,4.7 27.6,3.9 12.8,-1.1 25.2,-7 34.4,-16.5 1.6,-1.4 1.4,-3.9 2.8,-5.5 2.5,-3.5 7.7,-4.4 11.1,-1.9 2.1,1.4 3.1,4 4.4,6.1 1.8,2.8 3.8,5.5 6,7.9 5.2,5.7 12.1,9.4 19.4,11.1 3.8,0.9 7.7,0.8 11.5,0.7 14.2,-0.9 27.4,-10.7 33,-24.6 2.2,-6.4 11.3,-8.1 15.4,-3 1.7,2 2.1,4.8 3.4,7.2 4.9,10.1 13.7,17.9 23.9,21.1 4.2,1 8.5,1.9 12.8,1.6 14,-0.3 27.5,-9.2 33.7,-22.5 1.6,-2.8 2,-6.3 4,-8.9 2.7,-3.6 8.3,-4.1 11.6,-1.2 1.7,1.3 2.3,3.6 3.6,5.2 1.4,1.8 2.5,3.8 3.9,5.6 7.6,9.7 19.2,16 31.2,15.5 6.3,0.1 12.8,-1.4 18.3,-4.8 5.8,-3.3 11,-8.1 14.7,-14 1.8,-2.8 2.7,-6.1 4.3,-9 1.1,-1.7 0.6,-4 1.6,-5.7 1.7,-3.9 6.2,-5.9 10,-4.4 3.1,1 4.8,4.1 6.8,6.7 3.4,5.7 8,10.6 13.2,14.6 17.1,13 40.9,14.7 59.8,5.1 4.4,-2.2 8.4,-5.3 12.3,-8.5 -10.3,-3.9 -19.6,-10.3 -27.3,-18.5 -6.7,-7.4 -12,-16.5 -14.7,-26.4 -1.9,-6 -2.4,-12.4 -3,-18.7 V 308.1 c 0,-1.9 -0.4,-3.8 -0.4,-5.7 -0.1,-18.8 -2.5,-37.6 -7.4,-55.7 C 528,207.6 506.2,171.9 476.5,146.2 462.7,134.5 447.3,124.5 430.8,117.9 407,107.7 381.8,103.4 356.9,105 Z"
   id="path2" />
	<path
   class="st1"
   d="m 441.4,296.9 c -9.5,3.3 -20,3.8 -29.8,1.1 -11.6,-3.1 -22,-10.4 -28.7,-20.4 -6.3,-9.2 -9.4,-20.5 -8.7,-31.6 0.6,-11 5,-21.8 12.3,-30.2 0.5,-0.6 1.2,-0.9 1.9,-1.1 16.7,-4.6 33.4,-9.3 50.1,-14 1.3,-0.4 2.6,0.4 3.9,0.8 12,4.4 22.1,13.5 27.7,24.9 4.2,8.5 6,18.2 5,27.6 -1.1,11.1 -6.1,21.9 -13.9,30 -5.4,5.9 -12.3,10.3 -19.8,12.9 z"
   id="path3" />
	<path
   class="st1"
   d="m 300.2,299.4 c -11.6,-1.2 -22.6,-6.5 -30.8,-14.9 -12.2,-12.3 -17.4,-31.1 -12.9,-47.9 4.1,-16.7 17.4,-30.9 33.9,-35.8 17.1,4.3 34.1,9.1 51.2,13.6 1.6,0.2 2.5,1.7 3.4,2.8 4.9,6.1 8.4,13.2 10,20.9 2.4,10.3 1.3,21.5 -3,31.2 -4.2,9.8 -11.6,18.1 -20.8,23.4 -9.2,5.5 -20.3,7.9 -31,6.7 z"
   id="path4" />
	<path
   class="st2"
   d="m 282.8,345.2 c 0,0 78,36.2 163.2,0"
   id="path5" />
	<path
   class="st3"
   d="m 149.3,428.8 c 0,0 -30.6,-18.5 -57.3,10.4 -15.1,20.6 -19.1,43.6 -19.1,43.6 l 23.5,-13.9 3.9,26.3 18.3,-15 10.4,21.1 c 0,0 9.7,-34.1 19,-31.7 9.4,2.3 15.3,-28.6 1.3,-40.8 z"
   id="path6" />
	<path
   class="st3"
   d="m 647.6,389.2 c 0,0 -15.9,-34.1 -41.2,-30.8 -25.4,3.4 -9.4,19.3 -9.4,19.3 0,0 -24.8,6 -9.8,20.6 15,14.6 -17,5.3 -4.9,17.7 12.1,12.4 19.2,23.3 41,20.2 -0.1,0.1 35.9,-8.2 24.3,-47 z"
   id="path7" />
	<path
   class="st1"
   d="m 742.1,226.3 c 8.8,-22.8 22.9,-53.1 23,-53.4 1.4,-3.1 0.1,-6.7 -3,-8.1 -3.1,-1.4 -6.7,-0.1 -8.1,3 -0.1,0.2 -6.9,14.8 -14,31.4 L 729.7,179 c -1.5,-3 -5.2,-4.2 -8.2,-2.7 -3,1.5 -4.2,5.2 -2.7,8.2 l 14.7,28.8 c 0.1,0.2 0.2,0.4 0.4,0.6 -1.1,2.7 -2.2,5.4 -3.2,8 -6.3,16.3 -7.9,26.7 -8.2,32.7 l -32.9,38 -4.4,-25.9 c -0.6,-3.3 -3.8,-5.6 -7.1,-5 -3.3,0.6 -5.6,3.7 -5,7.1 l 6.1,35.8 -49.8,57.6 c -1.1,1.3 -1.6,2.9 -1.5,4.6 0.2,1.7 1,3.2 2.3,4.2 l 6.7,5.3 c 1.3,1 2.9,1.5 4.5,1.3 1.6,-0.2 3.1,-1 4.1,-2.3 L 731.6,265 764.3,248.7 c 3,-1.5 4.3,-5.2 2.8,-8.2 -1.5,-3 -5.2,-4.3 -8.2,-2.8 l -22.7,11.3 -0.7,-0.5 c 0.9,-5.1 2.8,-12.4 6.6,-22.2 z"
   id="path8" />
	<path
   class="st1"
   d="m 587.3,421.3 -10.8,14.9 c -1.1,1.3 -1.6,2.9 -1.5,4.6 0.2,1.7 1,3.2 2.3,4.2 l 6.7,5.3 c 1.3,1 2.9,1.5 4.5,1.3 1.6,-0.2 3.1,-1 4.1,-2.3 l 13.8,-17.6 h -11.6 z"
   id="path9" />
</g><text
       xml:space="preserve"
       style="font-style:normal;font-variant:normal;font-weight:normal;font-stretch:normal;font-size:9.87777px;font-family:'Melted Monster';-inkscape-font-specification:'Melted Monster';text-align:start;writing-mode:lr-tb;direction:ltr;text-anchor:start;fill:#036994;fill-opacity:1;stroke:none;stroke-width:0.529167;stroke-linecap:round;stroke-linejoin:round"
       x="141.02516"
       y="116.10906"
       id="text1"><tspan
         sodipodi:role="line"
         id="tspan1"
         style="font-style:normal;font-variant:normal;font-weight:normal;font-stretch:normal;font-family:'Melted Monster';-inkscape-font-specification:'Melted Monster';fill:#036994;fill-opacity:1;stroke:none;stroke-width:0.529167"
         x="141.02516"
         y="116.10906" /></text><path
       d="m 136.97432,158.0138 q 0.7155,0 0.8745,-0.95399 0.0795,-1.1925 0.477,-2.06699 0.47699,-0.8745 0.47699,-1.749 0,-0.63599 -0.0795,-0.95399 0,-0.318 -0.0795,-0.7155 0,-0.318 0,-1.19249 0,-1.74899 0.318,-3.73648 0.318,-1.90799 1.0335,-2.70299 l 2.94148,-2.78248 q 1.59,-1.431 2.46449,-2.46449 0.954,-1.0335 1.51049,-2.62349 1.59,-3.89548 1.59,-7.39346 0,-5.00848 -1.6695,-7.71146 -1.43099,-2.06699 -3.17998,-3.73649 l -1.58999,-1.66949 q 1.43099,-0.95399 2.70298,-3.89548 1.272,-2.94148 1.272,-6.83696 0,-5.326477 -2.86199,-9.460456 -1.90799,-2.782486 -3.33898,-3.656982 -2.70299,-1.748991 -4.61098,-2.464488 -1.90799,-0.715496 -3.89548,-0.715496 -4.53148,0 -6.83696,1.589992 -0.795,0.715496 -1.272,0.715496 -0.318,0 -0.5565,-0.556497 -0.47699,-1.192494 -2.14648,-1.271994 h -4.45198 q -2.86199,0 -3.73648,-0.158999 l -0.8745,-0.0795 q -1.51049,0 -1.98749,1.271993 -0.3975,1.271994 -0.3975,3.100485 l 0.0795,2.861986 q 0,0.874495 0.2385,2.066989 0.318,1.112995 0.318,2.94149 l -0.0795,4.37247 q 0,2.46449 0.159,4.29298 0.2385,1.82849 0.2385,3.33899 0,2.86198 -0.318,4.61097 -0.318,1.74899 -0.636,2.78249 -0.318,0.95399 -0.318,1.58999 0,0.954 1.272,1.74899 0.318,0.2385 0.318,0.477 0,0.8745 0.159,1.58999 0.15899,0.7155 0.15899,1.3515 l -0.0795,0.71549 q -0.15899,0.7155 -0.23849,2.54399 0,1.82849 -0.2385,3.97498 -0.159,2.14649 -0.5565,4.05448 -0.2385,1.03349 -0.2385,2.06699 0,1.19249 0.636,2.22599 0.63599,1.11299 0.87449,1.90799 0.2385,0.87449 0.3975,2.06699 0.159,1.19249 0.636,3.41848 0.3975,0.795 0.95399,0.795 0.3975,0 0.636,-0.2385 0.318,-0.159 0.3975,-0.636 0.0795,-0.3975 0.159,-0.87449 0.318,-1.113 0.318,-2.22599 l -0.0795,-1.3515 q 0,-1.03349 0.47699,-1.35149 0.5565,-0.318 1.6695,-0.318 1.19249,0 1.58999,0.2385 0.3975,0.2385 0.87449,0.2385 0.954,0 3.73649,-1.82849 0.79499,0.95399 3.33898,1.58999 2.62349,0.636 4.84947,0.636 l 1.98749,-0.159 q 0.954,0 1.113,1.27199 0,0.636 0.2385,1.1925 1.82849,5.32647 1.82849,6.83696 l -0.0795,1.1925 0.159,1.98749 q 0.159,0.87449 0.95399,0.87449 z m -9.93745,-24.48588 -2.86198,-0.0795 q -0.795,0 -0.954,-0.63599 0,-0.318 0.0795,-0.636 0.159,-0.318 0.159,-0.636 l -0.159,-1.03349 q -0.159,-1.0335 -0.159,-1.98749 0,-1.0335 0.0795,-1.66949 0.159,-0.7155 0.159,-1.6695 v -0.23849 q 0.477,1.11299 0.477,2.14649 0,0.79499 -0.0795,1.51049 -0.0795,0.63599 -0.0795,1.03349 0,0.636 0.2385,0.954 0.2385,0.318 0.95399,0.318 0.954,0 1.1925,-0.954 0.2385,-1.03349 0.2385,-2.30549 0.0795,-1.35149 0.31799,-2.46449 0.318,-1.11299 1.431,-1.11299 0.3975,0 0.87449,0.159 1.82849,0.636 2.78249,1.58999 0.95399,0.954 0.95399,2.62349 -0.15899,5.08797 -5.64447,5.08797 z m -2.78248,-22.81638 q -0.477,0 -0.477,-0.795 v -0.95399 q 0,-1.1925 -0.159,-2.06699 -0.0795,-0.8745 -0.0795,-1.749 l 0.0795,-1.90799 -0.0795,-1.27199 q 0,-1.66949 1.35149,-1.66949 0.8745,0 1.59,0.87449 0.79499,0.8745 0.79499,3.10049 v 0.5565 q 0,1.58999 1.0335,1.58999 0.79499,0 1.03349,-0.795 0.318,-0.87449 0.318,-2.62348 0.318,0.47699 0.7155,1.58999 0.47699,1.03349 0.47699,1.90799 0,0.477 -0.31799,0.71549 -1.0335,0.5565 -1.6695,1.431 -1.51049,1.82849 -3.73648,1.90799 z m 61.29426,52.62873 q 0.954,0 0.954,-1.74899 l -0.0795,-3.41848 q 0,-3.57748 0.159,-7.31396 0.159,-3.65698 0.2385,-7.87046 0,-2.06699 0.87449,-5.24698 0.0795,-0.0795 0.0795,-0.159 0,-0.159 0.0795,-0.2385 0.0795,-0.15899 0.2385,-0.15899 0.318,0.0795 0.5565,0.23849 0.2385,0.0795 0.5565,0.0795 0.71549,0 0.95399,-0.87449 0.318,-0.8745 0.3975,-2.06699 0.0795,-1.1925 0.0795,-2.30549 0,-1.19249 0.0795,-1.74899 1.58999,-6.99597 1.58999,-13.19694 0,-7.63196 -1.82849,-13.59443 -1.82849,-6.041968 -4.61098,-9.380951 -1.51049,-1.907991 -4.37248,-3.736481 -2.86198,-1.828491 -4.92897,-1.828491 h -2.78249 q -2.86198,0 -6.04197,0.794996 -3.10048,0.794996 -6.83696,4.928975 -1.1925,1.351493 -2.30549,3.418483 -1.0335,2.06699 -1.82849,3.974979 -0.795,1.82849 -1.0335,2.62349 -0.87449,3.57748 -1.82849,6.99596 -0.87449,3.33899 -1.58999,6.20097 -0.636,2.86199 -0.636,4.76998 0,2.54399 1.74899,2.54399 0.159,0 0.2385,0.23849 0.0795,0.159 0.2385,1.3515 0.159,1.19249 0.7155,4.05448 l 0.79499,3.49798 q 2.14649,9.53995 2.14649,15.58192 l -0.0795,1.272 q 0,1.66949 0.5565,2.46448 0.636,0.795 1.272,0.795 0.95399,0 1.19249,-1.58999 l -0.0795,-0.636 q 0,-2.38499 0.636,-4.69048 l 0.31799,-1.90799 q 0.318,-1.98749 1.272,-1.98749 0.71549,0 1.90799,0.7155 2.14649,1.19249 7.31396,1.58999 4.13398,0 5.80347,-0.5565 1.74899,-0.55649 2.70299,-1.35149 0.954,-0.71549 1.58999,-0.71549 1.43099,0 1.74899,2.38498 0.3975,2.46449 0.3975,5.72397 l -0.0795,5.72398 q 0,6.12147 1.3515,6.28046 z m -13.59443,-29.81235 q -1.03349,0 -1.90799,-0.87449 -0.87449,-0.8745 -0.87449,-2.22599 0,-1.35149 -0.3975,-2.14649 -0.318,-0.795 -0.636,-1.35149 -0.636,-0.7155 -0.636,-1.59 0,-0.47699 0.2385,-1.11299 0.2385,-0.636 0.2385,-1.43099 l -0.318,-3.33899 q 0,-1.74899 -0.0795,-2.94148 -0.0795,-1.272 -0.0795,-2.14649 0,-0.8745 0.159,-1.74899 l 0.477,-4.05448 q 0.477,1.11299 0.5565,2.54399 0,0.87449 0.2385,1.66949 0.2385,0.79499 1.03349,0.79499 0.795,0 0.954,-1.03349 0.0795,-0.7155 0.0795,-1.58999 v -1.5105 q 0,-2.06699 0.47699,-4.13398 0.5565,-2.14649 3.02099,-2.86198 0.5565,0 1.27199,0.3975 1.66949,1.03349 1.98749,1.74899 1.272,4.21348 1.272,10.33495 0,12.79943 -3.41849,16.53591 -1.90799,2.06699 -3.65698,2.06699 z m 57.39877,29.81235 q 0.95399,0 0.95399,-1.74899 l -0.0795,-3.41848 q 0,-3.57748 0.159,-7.31396 0.159,-3.65698 0.2385,-7.87046 0,-2.06699 0.8745,-5.24698 0.0795,-0.0795 0.0795,-0.159 0,-0.159 0.0795,-0.2385 0.0795,-0.15899 0.23849,-0.15899 0.318,0.0795 0.5565,0.23849 0.2385,0.0795 0.5565,0.0795 0.7155,0 0.95399,-0.87449 0.318,-0.8745 0.3975,-2.06699 0.0795,-1.1925 0.0795,-2.30549 0,-1.19249 0.0795,-1.74899 1.58999,-6.99597 1.58999,-13.19694 0,-7.63196 -1.82849,-13.59443 -1.82849,-6.041968 -4.61097,-9.380951 -1.5105,-1.907991 -4.37248,-3.736481 -2.86199,-1.828491 -4.92898,-1.828491 h -2.78248 q -2.86199,0 -6.04197,0.794996 -3.10049,0.794996 -6.83697,4.928975 -1.19249,1.351493 -2.30549,3.418483 -1.03349,2.06699 -1.82849,3.974979 -0.795,1.82849 -1.03349,2.62349 -0.8745,3.57748 -1.8285,6.99596 -0.87449,3.33899 -1.58999,6.20097 -0.63599,2.86199 -0.63599,4.76998 0,2.54399 1.74899,2.54399 0.159,0 0.2385,0.23849 0.0795,0.159 0.23849,1.3515 0.159,1.19249 0.7155,4.05448 l 0.795,3.49798 q 2.14649,9.53995 2.14649,15.58192 l -0.0795,1.272 q 0,1.66949 0.55649,2.46448 0.636,0.795 1.272,0.795 0.95399,0 1.19249,-1.58999 l -0.0795,-0.636 q 0,-2.38499 0.636,-4.69048 l 0.318,-1.90799 q 0.318,-1.98749 1.27199,-1.98749 0.7155,0 1.90799,0.7155 2.14649,1.19249 7.31397,1.58999 4.13397,0 5.80347,-0.5565 1.74899,-0.55649 2.70298,-1.35149 0.954,-0.71549 1.58999,-0.71549 1.431,0 1.749,2.38498 0.39749,2.46449 0.39749,5.72397 l -0.0795,5.72398 q 0,6.12147 1.3515,6.28046 z m -13.59444,-29.81235 q -1.03349,0 -1.90799,-0.87449 -0.87449,-0.8745 -0.87449,-2.22599 0,-1.35149 -0.3975,-2.14649 -0.318,-0.795 -0.636,-1.35149 -0.63599,-0.7155 -0.63599,-1.59 0,-0.47699 0.2385,-1.11299 0.23849,-0.636 0.23849,-1.43099 l -0.31799,-3.33899 q 0,-1.74899 -0.0795,-2.94148 -0.0795,-1.272 -0.0795,-2.14649 0,-0.8745 0.159,-1.74899 l 0.47699,-4.05448 q 0.477,1.11299 0.5565,2.54399 0,0.87449 0.2385,1.66949 0.2385,0.79499 1.03349,0.79499 0.795,0 0.954,-1.03349 0.0795,-0.7155 0.0795,-1.58999 v -1.5105 q 0,-2.06699 0.477,-4.13398 0.55649,-2.14649 3.02098,-2.86198 0.5565,0 1.272,0.3975 1.66949,1.03349 1.98749,1.74899 1.27199,4.21348 1.27199,10.33495 0,12.79943 -3.41848,16.53591 -1.90799,2.06699 -3.65699,2.06699 z m 28.9379,13.75343 q 2.14649,0 4.05448,-1.51049 1.98749,-1.51049 1.98749,-3.89548 v -0.87449 q 0,-2.14649 -1.90799,-3.73649 -1.82849,-1.58999 -3.89548,-1.58999 -2.06699,0 -3.81598,1.74899 -1.66949,1.749 -1.82849,3.81598 0,2.30549 1.58999,4.05448 1.66949,1.8285 3.81598,1.98749 z m 14.62793,0 q 2.14649,0 4.05448,-1.51049 1.98749,-1.51049 1.98749,-3.89548 v -0.87449 q 0,-2.14649 -1.90799,-3.73649 -1.82849,-1.58999 -3.89548,-1.58999 -2.06699,0 -3.81598,1.74899 -1.66949,1.749 -1.82849,3.81598 0,2.30549 1.58999,4.05448 1.66949,1.8285 3.81598,1.98749 z m 14.62793,0 q 2.14649,0 4.05448,-1.51049 1.98749,-1.51049 1.98749,-3.89548 v -0.87449 q 0,-2.14649 -1.90799,-3.73649 -1.82849,-1.58999 -3.89548,-1.58999 -2.06699,0 -3.81598,1.74899 -1.66949,1.749 -1.82849,3.81598 0,2.30549 1.58999,4.05448 1.66949,1.8285 3.81598,1.98749 z"
       id="text2"
       style="font-size:79.4996px;font-family:'Melted Monster';-inkscape-font-specification:'Melted Monster';fill:#036994;stroke-width:4.25891;stroke-linecap:round;stroke-linejoin:round"
       aria-label="Boo..." /></g><style
     type="text/css"
     id="style1">
	.st0{fill:#FFFFFF;}
	.st1{fill:#036994;}
	.st2{fill:none;stroke:#036994;stroke-width:14.4734;stroke-linecap:round;stroke-miterlimit:10;}
	.st3{fill:#FFFFFF;stroke:#036994;stroke-width:14.4734;stroke-linecap:round;stroke-linejoin:round;stroke-miterlimit:10;}
</style></svg>
